<svg width="25" height="34" viewBox="0 0 25 34" fill="none" xmlns="http://www.w3.org/2000/svg">
<mask id="path-1-inside-1_975_2568" fill="white">
<path fill-rule="evenodd" clip-rule="evenodd" d="M12.4563 0.791382C13.1 0.791382 13.7563 0.810718 13.9188 0.84939C14.0875 0.881616 14.5437 0.971851 14.9375 1.04919C15.3313 1.12009 15.9937 1.30056 16.4062 1.43591C16.8188 1.57771 17.4625 1.84197 17.8438 2.03533C18.225 2.22224 18.7563 2.51873 19.0312 2.69275C19.3062 2.86677 19.7687 3.19548 20.0625 3.42751C20.3563 3.6531 20.9188 4.17517 21.3188 4.58123C21.7125 4.99373 22.2188 5.5738 22.4375 5.87673C22.6625 6.17966 22.9812 6.65662 23.15 6.94021C23.3188 7.2238 23.6063 7.7781 23.7875 8.16482C23.9625 8.55154 24.1875 9.09294 24.2812 9.3572C24.3687 9.62146 24.5125 10.1177 24.5938 10.4529C24.6812 10.7881 24.8 11.4326 24.875 11.8902C24.9562 12.4445 25 13.0117 25 13.6562C25 14.2879 24.9562 14.8937 24.875 15.448C24.8062 15.9121 24.6688 16.6017 24.5688 16.9949C24.4688 17.3881 24.2812 17.981 24.1562 18.3162C24.025 18.6513 23.8063 19.1605 23.6688 19.4441C23.5312 19.7277 23.2812 20.1918 23.1063 20.4754C22.9375 20.759 22.6688 21.165 22.5125 21.3777C22.3563 21.5904 22.075 21.9449 21.5625 22.5701L22.85 25.8765C23.5625 27.6877 24.1562 29.2926 24.175 29.4344C24.1875 29.5761 24.1687 29.8082 24.1187 29.95C24.075 30.0918 23.95 30.3045 23.85 30.4269C23.7437 30.5494 23.5625 30.6847 23.45 30.7363C23.3438 30.7814 23.1063 30.8201 22.9375 30.8201C22.7625 30.8201 21.875 30.659 20.95 30.4656C20.0312 30.2722 19.2313 30.1111 19.1688 30.1111C19.1 30.1111 18.725 30.6332 18.025 31.7095C17.45 32.5861 16.9375 33.3467 16.8813 33.4111C16.825 33.4691 16.675 33.5787 16.5438 33.6496C16.3938 33.7398 16.2 33.7849 15.9813 33.7849C15.7313 33.7849 15.5938 33.7463 15.375 33.6045C15.2188 33.5078 15.0375 33.3273 14.9625 33.2049C14.8937 33.0824 14.3125 31.6515 13.6812 30.0273C13.05 28.4095 12.5188 27.0818 12.5 27.0818C12.4812 27.0818 11.95 28.4095 11.3188 30.0273C10.6875 31.6515 10.1063 33.0824 10.0375 33.2049C9.9625 33.3273 9.78125 33.5078 9.625 33.6045C9.40625 33.7463 9.26875 33.7849 9.0125 33.7849C8.8 33.7849 8.60625 33.7398 8.45 33.6496C8.325 33.5787 8.175 33.4691 8.11875 33.4111C8.0625 33.3467 7.55 32.5861 6.975 31.7095C6.40625 30.8265 5.9 30.1111 5.85625 30.1111C5.81875 30.1111 5.00625 30.2722 4.0625 30.472C2.81875 30.7299 2.2375 30.8201 1.95625 30.8072C1.64375 30.7943 1.53125 30.7556 1.33125 30.5881C1.2 30.4849 1.03125 30.2658 0.95 30.1047C0.8375 29.8855 0.8125 29.7502 0.83125 29.4988C0.85 29.2732 1.2375 28.1968 3.4375 22.5701L3.10625 22.164C2.925 21.9449 2.64375 21.5904 2.4875 21.3777C2.33125 21.165 2.0625 20.759 1.89375 20.4754C1.71875 20.1918 1.46875 19.7277 1.33125 19.4441C1.19375 19.1605 0.98125 18.6642 0.85625 18.3484C0.7375 18.0326 0.5625 17.5041 0.475 17.1883C0.3875 16.8724 0.24375 16.1699 0.15625 15.6414C0.04375 14.926 0 14.4361 0 13.74C0 13.2244 0.04375 12.4961 0.09375 12.1094C0.14375 11.7291 0.24375 11.149 0.31875 10.8267C0.3875 10.498 0.54375 9.92439 0.6625 9.55056C0.78125 9.17673 1.05625 8.49998 1.275 8.03591C1.49375 7.57185 1.8625 6.90798 2.09375 6.55349C2.325 6.199 2.6875 5.68982 2.90625 5.42556C3.11875 5.1613 3.5625 4.68435 3.8875 4.36209C4.20625 4.03982 4.68125 3.62087 4.9375 3.42107C5.19375 3.22126 5.64375 2.90544 5.9375 2.71208C6.23125 2.52517 6.79375 2.2158 7.1875 2.02244C7.58125 1.82908 8.23125 1.55837 8.625 1.42947C9.01875 1.29412 9.66875 1.12654 10.0625 1.04919C10.4563 0.971851 10.8938 0.881616 11.0312 0.855835C11.1687 0.823608 11.8062 0.797827 12.45 0.791382H12.4563ZM10.35 3.61443C10.0375 3.68533 9.53125 3.83357 9.225 3.94314C8.9125 4.05916 8.40625 4.27185 8.1 4.42654C7.7875 4.58123 7.29375 4.87771 6.99375 5.08396C6.69375 5.29021 6.20625 5.67693 5.9125 5.94119C5.61875 6.20544 5.1875 6.65017 4.95625 6.92732C4.725 7.20447 4.375 7.68787 4.175 7.9908C3.975 8.30017 3.6875 8.80935 3.5375 9.13162C3.3875 9.44744 3.1625 10.0146 3.04375 10.3885C2.91875 10.7623 2.75 11.381 2.68125 11.7742C2.56875 12.3478 2.54375 12.7088 2.54375 13.6756C2.54375 14.6424 2.56875 15.0033 2.68125 15.5769C2.75 15.9701 2.9125 16.576 3.03125 16.9304C3.15 17.2849 3.33125 17.7619 3.43125 17.9939C3.53125 18.226 3.75 18.6449 3.9125 18.9285C4.08125 19.2121 4.36875 19.6633 4.5625 19.9275C4.75625 20.1918 5.1375 20.6365 5.4125 20.9265C5.6875 21.2101 6.1375 21.6226 6.4125 21.8353C6.6875 22.048 7.10625 22.351 7.35 22.4992C7.5875 22.6474 7.98125 22.8666 8.225 22.989C8.4625 23.1051 8.94375 23.3049 9.2875 23.4273C9.63125 23.5498 10.2375 23.7174 10.6313 23.8011C11.2375 23.9301 11.5312 23.9494 12.5063 23.9494C13.3438 23.9494 13.8188 23.9172 14.225 23.8398C14.5312 23.7754 15.0938 23.6271 15.475 23.5047C15.85 23.3822 16.375 23.1888 16.6313 23.0664C16.8875 22.9439 17.325 22.7054 17.6 22.5379C17.875 22.3638 18.2938 22.0738 18.5375 21.8933C18.7812 21.7064 19.2125 21.3133 19.5063 21.0168C19.8 20.7138 20.2063 20.2433 20.4188 19.9597C20.625 19.6761 20.9438 19.1992 21.1187 18.8963C21.2937 18.5933 21.5375 18.1035 21.6625 17.8006C21.7875 17.4976 21.9688 16.9756 22.0688 16.6404C22.1688 16.3052 22.3 15.7638 22.3625 15.448C22.4375 15.0226 22.4688 14.5457 22.4688 13.6756C22.4688 12.7088 22.4437 12.3478 22.3312 11.7742C22.2625 11.381 22.0938 10.7623 21.975 10.3885C21.85 10.0146 21.625 9.44744 21.4688 9.13162C21.3188 8.80935 21.0375 8.30017 20.8375 7.9908C20.6375 7.68142 20.2625 7.18513 20.0063 6.87576C19.75 6.57283 19.3187 6.1281 19.05 5.88962C18.7812 5.65115 18.3125 5.29021 18.0187 5.08396C17.7188 4.87771 17.2063 4.58123 16.8813 4.41365C16.5562 4.25251 16.0063 4.02048 15.6625 3.89802C15.3188 3.78201 14.7438 3.62087 14.3813 3.54998C13.95 3.46619 13.3938 3.40818 12.7563 3.39529C12.225 3.3824 11.5875 3.39529 11.35 3.42751C11.1063 3.45974 10.6562 3.54353 10.35 3.61443ZM4.79375 26.0441C4.425 26.9851 4.1375 27.765 4.14375 27.7779C4.15625 27.7908 4.7 27.6941 5.35 27.5588C6.3875 27.3525 6.56875 27.3332 6.8 27.3976C6.95 27.4363 7.15625 27.5459 7.26875 27.649C7.375 27.7457 7.74375 28.2484 8.08125 28.7769C8.41875 29.299 8.70625 29.7179 8.71875 29.7115C8.7375 29.6986 9.04375 28.9381 9.40625 28.0164C9.76875 27.0947 10.0625 26.3342 10.05 26.3342C10.0437 26.3277 9.7125 26.2375 9.31875 26.1279C8.925 26.0248 8.33125 25.825 8.00625 25.6961C7.68125 25.5607 7.1875 25.3351 6.9125 25.1933C6.6375 25.0515 6.2 24.8002 5.93125 24.6326L5.45625 24.3232L4.79375 26.0441ZM18.1313 25.1804C17.7688 25.3674 17.2063 25.6252 16.8813 25.7541C16.5562 25.8765 15.9938 26.057 15.6313 26.1537C15.2688 26.2504 14.9688 26.3277 14.9625 26.3342C14.9562 26.3406 15.2438 27.1011 15.6063 28.0228C15.9688 28.9445 16.275 29.7051 16.2938 29.7115C16.3063 29.7179 16.5938 29.299 16.9375 28.7769C17.275 28.2549 17.6375 27.7457 17.75 27.649C17.8563 27.5523 18.0625 27.4363 18.2125 27.3976C18.4438 27.3332 18.6313 27.359 19.6625 27.5652C20.3188 27.6941 20.8562 27.7908 20.8687 27.7843C20.8813 27.7715 20.5875 26.9916 20.2188 26.057C19.8563 25.116 19.55 24.3426 19.5438 24.3426C19.5375 24.3361 19.3625 24.4457 19.1562 24.581C18.9562 24.7164 18.4937 24.9871 18.1313 25.1804ZM12.6313 5.97341C12.875 5.99919 13.05 6.0572 13.225 6.18611C13.45 6.3408 13.5687 6.55994 14.3 8.07458C14.75 9.00916 15.1312 9.80193 15.1437 9.83415C15.1562 9.86638 15.9813 10.0146 16.975 10.1629C18.275 10.3562 18.8563 10.4658 19.0375 10.5625C19.175 10.6334 19.3687 10.8074 19.4625 10.9427C19.5812 11.1103 19.6562 11.3101 19.675 11.5228C19.6937 11.6969 19.675 11.9547 19.6375 12.1029C19.575 12.3092 19.2938 12.625 16.8188 15.1322L17.1375 17.0336C17.4125 18.6771 17.45 18.9672 17.3875 19.2056C17.35 19.3539 17.2312 19.5859 17.1187 19.7148C17.0063 19.8437 16.8 20.0049 16.6625 20.0693C16.525 20.1338 16.3313 20.1853 16.225 20.1853C16.125 20.1918 15.9375 20.1531 15.8188 20.1144C15.7 20.0693 14.9187 19.6633 14.0875 19.2121C13.25 18.7545 12.55 18.3806 12.525 18.3806C12.5 18.3806 11.7875 18.7545 10.9438 19.2056C10.1 19.6633 9.3125 20.0693 9.19375 20.1144C9.075 20.1531 8.89375 20.1918 8.7875 20.1853C8.6875 20.1853 8.4875 20.1338 8.35 20.0693C8.2125 20.0049 8.0125 19.8437 7.9 19.7148C7.7875 19.5859 7.6625 19.3539 7.625 19.2056C7.56875 18.9672 7.6 18.6771 8.19375 15.1322L6.825 13.7465C5.725 12.625 5.44375 12.3092 5.38125 12.1029C5.3375 11.9611 5.3125 11.7097 5.33125 11.5551C5.34375 11.381 5.425 11.149 5.525 10.9879C5.625 10.8203 5.8 10.6592 5.9625 10.5754C6.15625 10.4722 6.7 10.3691 8.01875 10.1758C9 10.0275 9.81875 9.89216 9.8375 9.87927C9.85625 9.85994 10.2437 9.06716 10.6875 8.1197C11.325 6.77908 11.55 6.36013 11.7125 6.23767C11.825 6.14744 12 6.04431 12.1 6.01208C12.2063 5.97986 12.4438 5.96052 12.6313 5.97341ZM11.6187 11.916C11.5562 11.9998 11.4 12.1222 11.275 12.1931C11.1437 12.2576 10.6438 12.3736 10.1625 12.451C9.68125 12.5283 9.28125 12.5992 9.275 12.6056C9.2625 12.6121 9.51875 12.8635 9.83125 13.1664C10.15 13.4629 10.4875 13.8431 10.5813 14.0043C10.7188 14.2299 10.7563 14.3652 10.7563 14.6488C10.7563 14.8422 10.7 15.3191 10.6313 15.7123C10.5688 16.099 10.525 16.4342 10.5437 16.4535C10.5625 16.4664 10.9313 16.2924 11.3625 16.0668C12.0688 15.6865 12.1875 15.6478 12.5125 15.6478C12.8375 15.6478 12.9563 15.6865 13.6562 16.0668C14.0813 16.2924 14.45 16.4664 14.4688 16.4535C14.4875 16.4342 14.45 16.099 14.3813 15.7123C14.3125 15.3191 14.2563 14.8422 14.2563 14.6488C14.2563 14.3652 14.2937 14.2299 14.4312 14.0043C14.5312 13.8431 14.8687 13.4629 15.1875 13.1664C15.5 12.8635 15.75 12.6121 15.7437 12.6056C15.7312 12.5992 15.3313 12.5283 14.85 12.451C14.3688 12.3736 13.8687 12.2576 13.7437 12.1867C13.6125 12.1222 13.4562 11.9998 13.4 11.916C13.3375 11.8322 13.1313 11.4133 12.9438 10.9814C12.7563 10.5496 12.5688 10.2015 12.5312 10.2015C12.5 10.2015 12.3 10.5496 12.0938 10.9814C11.8938 11.4133 11.675 11.8322 11.6187 11.916Z"/>
</mask>
<path fill-rule="evenodd" clip-rule="evenodd" d="M12.4563 0.791382C13.1 0.791382 13.7563 0.810718 13.9188 0.84939C14.0875 0.881616 14.5437 0.971851 14.9375 1.04919C15.3313 1.12009 15.9937 1.30056 16.4062 1.43591C16.8188 1.57771 17.4625 1.84197 17.8438 2.03533C18.225 2.22224 18.7563 2.51873 19.0312 2.69275C19.3062 2.86677 19.7687 3.19548 20.0625 3.42751C20.3563 3.6531 20.9188 4.17517 21.3188 4.58123C21.7125 4.99373 22.2188 5.5738 22.4375 5.87673C22.6625 6.17966 22.9812 6.65662 23.15 6.94021C23.3188 7.2238 23.6063 7.7781 23.7875 8.16482C23.9625 8.55154 24.1875 9.09294 24.2812 9.3572C24.3687 9.62146 24.5125 10.1177 24.5938 10.4529C24.6812 10.7881 24.8 11.4326 24.875 11.8902C24.9562 12.4445 25 13.0117 25 13.6562C25 14.2879 24.9562 14.8937 24.875 15.448C24.8062 15.9121 24.6688 16.6017 24.5688 16.9949C24.4688 17.3881 24.2812 17.981 24.1562 18.3162C24.025 18.6513 23.8063 19.1605 23.6688 19.4441C23.5312 19.7277 23.2812 20.1918 23.1063 20.4754C22.9375 20.759 22.6688 21.165 22.5125 21.3777C22.3563 21.5904 22.075 21.9449 21.5625 22.5701L22.85 25.8765C23.5625 27.6877 24.1562 29.2926 24.175 29.4344C24.1875 29.5761 24.1687 29.8082 24.1187 29.95C24.075 30.0918 23.95 30.3045 23.85 30.4269C23.7437 30.5494 23.5625 30.6847 23.45 30.7363C23.3438 30.7814 23.1063 30.8201 22.9375 30.8201C22.7625 30.8201 21.875 30.659 20.95 30.4656C20.0312 30.2722 19.2313 30.1111 19.1688 30.1111C19.1 30.1111 18.725 30.6332 18.025 31.7095C17.45 32.5861 16.9375 33.3467 16.8813 33.4111C16.825 33.4691 16.675 33.5787 16.5438 33.6496C16.3938 33.7398 16.2 33.7849 15.9813 33.7849C15.7313 33.7849 15.5938 33.7463 15.375 33.6045C15.2188 33.5078 15.0375 33.3273 14.9625 33.2049C14.8937 33.0824 14.3125 31.6515 13.6812 30.0273C13.05 28.4095 12.5188 27.0818 12.5 27.0818C12.4812 27.0818 11.95 28.4095 11.3188 30.0273C10.6875 31.6515 10.1063 33.0824 10.0375 33.2049C9.9625 33.3273 9.78125 33.5078 9.625 33.6045C9.40625 33.7463 9.26875 33.7849 9.0125 33.7849C8.8 33.7849 8.60625 33.7398 8.45 33.6496C8.325 33.5787 8.175 33.4691 8.11875 33.4111C8.0625 33.3467 7.55 32.5861 6.975 31.7095C6.40625 30.8265 5.9 30.1111 5.85625 30.1111C5.81875 30.1111 5.00625 30.2722 4.0625 30.472C2.81875 30.7299 2.2375 30.8201 1.95625 30.8072C1.64375 30.7943 1.53125 30.7556 1.33125 30.5881C1.2 30.4849 1.03125 30.2658 0.95 30.1047C0.8375 29.8855 0.8125 29.7502 0.83125 29.4988C0.85 29.2732 1.2375 28.1968 3.4375 22.5701L3.10625 22.164C2.925 21.9449 2.64375 21.5904 2.4875 21.3777C2.33125 21.165 2.0625 20.759 1.89375 20.4754C1.71875 20.1918 1.46875 19.7277 1.33125 19.4441C1.19375 19.1605 0.98125 18.6642 0.85625 18.3484C0.7375 18.0326 0.5625 17.5041 0.475 17.1883C0.3875 16.8724 0.24375 16.1699 0.15625 15.6414C0.04375 14.926 0 14.4361 0 13.74C0 13.2244 0.04375 12.4961 0.09375 12.1094C0.14375 11.7291 0.24375 11.149 0.31875 10.8267C0.3875 10.498 0.54375 9.92439 0.6625 9.55056C0.78125 9.17673 1.05625 8.49998 1.275 8.03591C1.49375 7.57185 1.8625 6.90798 2.09375 6.55349C2.325 6.199 2.6875 5.68982 2.90625 5.42556C3.11875 5.1613 3.5625 4.68435 3.8875 4.36209C4.20625 4.03982 4.68125 3.62087 4.9375 3.42107C5.19375 3.22126 5.64375 2.90544 5.9375 2.71208C6.23125 2.52517 6.79375 2.2158 7.1875 2.02244C7.58125 1.82908 8.23125 1.55837 8.625 1.42947C9.01875 1.29412 9.66875 1.12654 10.0625 1.04919C10.4563 0.971851 10.8938 0.881616 11.0312 0.855835C11.1687 0.823608 11.8062 0.797827 12.45 0.791382H12.4563ZM10.35 3.61443C10.0375 3.68533 9.53125 3.83357 9.225 3.94314C8.9125 4.05916 8.40625 4.27185 8.1 4.42654C7.7875 4.58123 7.29375 4.87771 6.99375 5.08396C6.69375 5.29021 6.20625 5.67693 5.9125 5.94119C5.61875 6.20544 5.1875 6.65017 4.95625 6.92732C4.725 7.20447 4.375 7.68787 4.175 7.9908C3.975 8.30017 3.6875 8.80935 3.5375 9.13162C3.3875 9.44744 3.1625 10.0146 3.04375 10.3885C2.91875 10.7623 2.75 11.381 2.68125 11.7742C2.56875 12.3478 2.54375 12.7088 2.54375 13.6756C2.54375 14.6424 2.56875 15.0033 2.68125 15.5769C2.75 15.9701 2.9125 16.576 3.03125 16.9304C3.15 17.2849 3.33125 17.7619 3.43125 17.9939C3.53125 18.226 3.75 18.6449 3.9125 18.9285C4.08125 19.2121 4.36875 19.6633 4.5625 19.9275C4.75625 20.1918 5.1375 20.6365 5.4125 20.9265C5.6875 21.2101 6.1375 21.6226 6.4125 21.8353C6.6875 22.048 7.10625 22.351 7.35 22.4992C7.5875 22.6474 7.98125 22.8666 8.225 22.989C8.4625 23.1051 8.94375 23.3049 9.2875 23.4273C9.63125 23.5498 10.2375 23.7174 10.6313 23.8011C11.2375 23.9301 11.5312 23.9494 12.5063 23.9494C13.3438 23.9494 13.8188 23.9172 14.225 23.8398C14.5312 23.7754 15.0938 23.6271 15.475 23.5047C15.85 23.3822 16.375 23.1888 16.6313 23.0664C16.8875 22.9439 17.325 22.7054 17.6 22.5379C17.875 22.3638 18.2938 22.0738 18.5375 21.8933C18.7812 21.7064 19.2125 21.3133 19.5063 21.0168C19.8 20.7138 20.2063 20.2433 20.4188 19.9597C20.625 19.6761 20.9438 19.1992 21.1187 18.8963C21.2937 18.5933 21.5375 18.1035 21.6625 17.8006C21.7875 17.4976 21.9688 16.9756 22.0688 16.6404C22.1688 16.3052 22.3 15.7638 22.3625 15.448C22.4375 15.0226 22.4688 14.5457 22.4688 13.6756C22.4688 12.7088 22.4437 12.3478 22.3312 11.7742C22.2625 11.381 22.0938 10.7623 21.975 10.3885C21.85 10.0146 21.625 9.44744 21.4688 9.13162C21.3188 8.80935 21.0375 8.30017 20.8375 7.9908C20.6375 7.68142 20.2625 7.18513 20.0063 6.87576C19.75 6.57283 19.3187 6.1281 19.05 5.88962C18.7812 5.65115 18.3125 5.29021 18.0187 5.08396C17.7188 4.87771 17.2063 4.58123 16.8813 4.41365C16.5562 4.25251 16.0063 4.02048 15.6625 3.89802C15.3188 3.78201 14.7438 3.62087 14.3813 3.54998C13.95 3.46619 13.3938 3.40818 12.7563 3.39529C12.225 3.3824 11.5875 3.39529 11.35 3.42751C11.1063 3.45974 10.6562 3.54353 10.35 3.61443ZM4.79375 26.0441C4.425 26.9851 4.1375 27.765 4.14375 27.7779C4.15625 27.7908 4.7 27.6941 5.35 27.5588C6.3875 27.3525 6.56875 27.3332 6.8 27.3976C6.95 27.4363 7.15625 27.5459 7.26875 27.649C7.375 27.7457 7.74375 28.2484 8.08125 28.7769C8.41875 29.299 8.70625 29.7179 8.71875 29.7115C8.7375 29.6986 9.04375 28.9381 9.40625 28.0164C9.76875 27.0947 10.0625 26.3342 10.05 26.3342C10.0437 26.3277 9.7125 26.2375 9.31875 26.1279C8.925 26.0248 8.33125 25.825 8.00625 25.6961C7.68125 25.5607 7.1875 25.3351 6.9125 25.1933C6.6375 25.0515 6.2 24.8002 5.93125 24.6326L5.45625 24.3232L4.79375 26.0441ZM18.1313 25.1804C17.7688 25.3674 17.2063 25.6252 16.8813 25.7541C16.5562 25.8765 15.9938 26.057 15.6313 26.1537C15.2688 26.2504 14.9688 26.3277 14.9625 26.3342C14.9562 26.3406 15.2438 27.1011 15.6063 28.0228C15.9688 28.9445 16.275 29.7051 16.2938 29.7115C16.3063 29.7179 16.5938 29.299 16.9375 28.7769C17.275 28.2549 17.6375 27.7457 17.75 27.649C17.8563 27.5523 18.0625 27.4363 18.2125 27.3976C18.4438 27.3332 18.6313 27.359 19.6625 27.5652C20.3188 27.6941 20.8562 27.7908 20.8687 27.7843C20.8813 27.7715 20.5875 26.9916 20.2188 26.057C19.8563 25.116 19.55 24.3426 19.5438 24.3426C19.5375 24.3361 19.3625 24.4457 19.1562 24.581C18.9562 24.7164 18.4937 24.9871 18.1313 25.1804ZM12.6313 5.97341C12.875 5.99919 13.05 6.0572 13.225 6.18611C13.45 6.3408 13.5687 6.55994 14.3 8.07458C14.75 9.00916 15.1312 9.80193 15.1437 9.83415C15.1562 9.86638 15.9813 10.0146 16.975 10.1629C18.275 10.3562 18.8563 10.4658 19.0375 10.5625C19.175 10.6334 19.3687 10.8074 19.4625 10.9427C19.5812 11.1103 19.6562 11.3101 19.675 11.5228C19.6937 11.6969 19.675 11.9547 19.6375 12.1029C19.575 12.3092 19.2938 12.625 16.8188 15.1322L17.1375 17.0336C17.4125 18.6771 17.45 18.9672 17.3875 19.2056C17.35 19.3539 17.2312 19.5859 17.1187 19.7148C17.0063 19.8437 16.8 20.0049 16.6625 20.0693C16.525 20.1338 16.3313 20.1853 16.225 20.1853C16.125 20.1918 15.9375 20.1531 15.8188 20.1144C15.7 20.0693 14.9187 19.6633 14.0875 19.2121C13.25 18.7545 12.55 18.3806 12.525 18.3806C12.5 18.3806 11.7875 18.7545 10.9438 19.2056C10.1 19.6633 9.3125 20.0693 9.19375 20.1144C9.075 20.1531 8.89375 20.1918 8.7875 20.1853C8.6875 20.1853 8.4875 20.1338 8.35 20.0693C8.2125 20.0049 8.0125 19.8437 7.9 19.7148C7.7875 19.5859 7.6625 19.3539 7.625 19.2056C7.56875 18.9672 7.6 18.6771 8.19375 15.1322L6.825 13.7465C5.725 12.625 5.44375 12.3092 5.38125 12.1029C5.3375 11.9611 5.3125 11.7097 5.33125 11.5551C5.34375 11.381 5.425 11.149 5.525 10.9879C5.625 10.8203 5.8 10.6592 5.9625 10.5754C6.15625 10.4722 6.7 10.3691 8.01875 10.1758C9 10.0275 9.81875 9.89216 9.8375 9.87927C9.85625 9.85994 10.2437 9.06716 10.6875 8.1197C11.325 6.77908 11.55 6.36013 11.7125 6.23767C11.825 6.14744 12 6.04431 12.1 6.01208C12.2063 5.97986 12.4438 5.96052 12.6313 5.97341ZM11.6187 11.916C11.5562 11.9998 11.4 12.1222 11.275 12.1931C11.1437 12.2576 10.6438 12.3736 10.1625 12.451C9.68125 12.5283 9.28125 12.5992 9.275 12.6056C9.2625 12.6121 9.51875 12.8635 9.83125 13.1664C10.15 13.4629 10.4875 13.8431 10.5813 14.0043C10.7188 14.2299 10.7563 14.3652 10.7563 14.6488C10.7563 14.8422 10.7 15.3191 10.6313 15.7123C10.5688 16.099 10.525 16.4342 10.5437 16.4535C10.5625 16.4664 10.9313 16.2924 11.3625 16.0668C12.0688 15.6865 12.1875 15.6478 12.5125 15.6478C12.8375 15.6478 12.9563 15.6865 13.6562 16.0668C14.0813 16.2924 14.45 16.4664 14.4688 16.4535C14.4875 16.4342 14.45 16.099 14.3813 15.7123C14.3125 15.3191 14.2563 14.8422 14.2563 14.6488C14.2563 14.3652 14.2937 14.2299 14.4312 14.0043C14.5312 13.8431 14.8687 13.4629 15.1875 13.1664C15.5 12.8635 15.75 12.6121 15.7437 12.6056C15.7312 12.5992 15.3313 12.5283 14.85 12.451C14.3688 12.3736 13.8687 12.2576 13.7437 12.1867C13.6125 12.1222 13.4562 11.9998 13.4 11.916C13.3375 11.8322 13.1313 11.4133 12.9438 10.9814C12.7563 10.5496 12.5688 10.2015 12.5312 10.2015C12.5 10.2015 12.3 10.5496 12.0938 10.9814C11.8938 11.4133 11.675 11.8322 11.6187 11.916Z" fill="#3E3E3E" stroke="#FDE5E4" stroke-width="0.8" mask="url(#path-1-inside-1_975_2568)"/>
</svg>
