<svg width="21" height="21" viewBox="0 0 21 21" fill="none" xmlns="http://www.w3.org/2000/svg">
<path d="M6.27778 17.8889C6.27778 19.0548 5.3326 20 4.16667 20C3.00073 20 2.05556 19.0548 2.05556 17.8889C2.05556 16.723 3.00073 15.7778 4.16667 15.7778C5.3326 15.7778 6.27778 16.723 6.27778 17.8889ZM6.27778 17.8889H14.7222C15.8882 17.8889 16.8333 16.9437 16.8333 15.7778V11.5556M14.7222 3.11111C14.7222 4.27705 15.6674 5.22222 16.8333 5.22222C17.9993 5.22222 18.9444 4.27705 18.9444 3.11111C18.9444 1.94518 17.9993 1 16.8333 1C15.6674 1 14.7222 1.94518 14.7222 3.11111ZM14.7222 3.11111H6.27778C5.11184 3.11111 4.16667 4.05629 4.16667 5.22222V9.44444M20 13.6667L17.2065 10.666C17.0004 10.4447 16.6662 10.4447 16.4601 10.666L13.6667 13.6667M7.33333 7.33333L4.53986 10.334C4.33375 10.5553 3.99958 10.5553 3.79347 10.334L1 7.33333" stroke="#3E3E3E" stroke-width="1.5" stroke-linecap="round"/>
</svg>
