<svg width="30" height="29" viewBox="0 0 30 29" fill="none" xmlns="http://www.w3.org/2000/svg">
<path fill-rule="evenodd" clip-rule="evenodd" d="M24.1443 0.285156C24.2445 0.285156 24.4058 0.335156 24.4947 0.396267C24.5837 0.457378 24.6894 0.557378 24.7172 0.61849C24.7506 0.679601 24.923 1.42405 25.1066 2.27405C25.2901 3.11849 25.457 3.82405 25.4737 3.84071C25.4959 3.85738 26.1856 4.01293 27.0199 4.19071C27.8487 4.36293 28.5884 4.54071 28.6607 4.5796C28.733 4.61293 28.8443 4.71849 28.8999 4.81293C28.9555 4.90738 29 5.04627 29 5.13516C29 5.21849 28.9722 5.34071 28.9388 5.41293C28.9054 5.4796 27.971 6.44071 24.8563 9.55182L24.9731 9.74071C25.0398 9.84071 25.2067 10.1852 25.3457 10.5074C25.4848 10.8296 25.6572 11.2796 25.7351 11.5074C25.813 11.7352 25.9409 12.174 26.0187 12.4796C26.0966 12.7852 26.2023 13.2852 26.2579 13.5907C26.3302 14.0185 26.3525 14.4685 26.358 15.5352C26.358 16.6129 26.3358 17.0518 26.2579 17.5074C26.2079 17.8296 26.0911 18.3796 26.0021 18.7296C25.9131 19.0796 25.7462 19.6185 25.635 19.924C25.5237 20.2296 25.2734 20.8074 25.0788 21.2018C24.8841 21.5963 24.5504 22.1796 24.3446 22.4907C24.1388 22.8018 23.8106 23.2518 23.6215 23.4907C23.438 23.7296 23.0208 24.1852 22.7038 24.5018C22.3923 24.824 21.9084 25.2629 21.6303 25.4852C21.3578 25.7018 20.9072 26.0296 20.6291 26.2129C20.3566 26.3907 19.8004 26.7018 19.4055 26.9074C19.0106 27.1074 18.4099 27.374 18.0706 27.4963C17.7369 27.6185 17.1473 27.7963 16.7635 27.8907C16.3797 27.9852 15.7123 28.1129 15.2784 28.174C14.7779 28.2407 14.1883 28.2852 13.6933 28.2852C13.1927 28.2852 12.6142 28.2463 12.1359 28.174C11.7132 28.1129 11.1347 28.0129 10.8566 27.9518C10.573 27.8907 10.0001 27.724 9.58848 27.5852C9.17689 27.4518 8.51501 27.1796 8.11454 26.9852C7.71963 26.7907 7.11893 26.4518 6.77965 26.2296C6.44593 26.0074 5.9954 25.6852 5.77848 25.5129C5.56712 25.3463 5.15553 24.9796 4.86631 24.7018C4.58264 24.4296 4.1488 23.9629 3.90407 23.674C3.65934 23.3852 3.28669 22.8852 3.07533 22.5629C2.85841 22.2407 2.508 21.6296 2.29664 21.2018C2.08529 20.774 1.82387 20.174 1.71819 19.8685C1.60695 19.5629 1.44565 19.024 1.35666 18.674C1.26767 18.324 1.15086 17.7463 1.09524 17.3963C1.02294 16.9296 0.995127 16.4407 1.00069 15.5629C1.00069 14.6963 1.0285 14.1907 1.10081 13.7296C1.15086 13.3796 1.28435 12.7518 1.39003 12.3407C1.49571 11.9296 1.69594 11.3018 1.84056 10.9518C1.97961 10.6018 2.21878 10.0629 2.37451 9.75738C2.53025 9.45182 2.83616 8.94071 3.04752 8.61849C3.25888 8.29627 3.57035 7.85738 3.74277 7.64627C3.90964 7.43516 4.26561 7.03516 4.52702 6.76293C4.78844 6.49071 5.23896 6.07405 5.52819 5.8296C5.81742 5.58516 6.35693 5.18516 6.72403 4.94071C7.09112 4.70182 7.69182 4.35738 8.05892 4.1796C8.42601 3.99627 8.97665 3.75738 9.28257 3.64627C9.58848 3.53516 10.1669 3.35738 10.5618 3.25738C10.9623 3.15738 11.5964 3.03516 11.9802 2.9796C12.4196 2.91849 13.0481 2.88516 13.6766 2.88516C14.3162 2.88516 14.9169 2.91293 15.3452 2.97405C15.7123 3.02405 16.2741 3.1296 16.5966 3.20738C16.9192 3.2796 17.3809 3.40738 17.6256 3.49071C17.8704 3.56849 18.2819 3.71849 18.5434 3.8296C18.8048 3.93516 19.1774 4.10182 19.7392 4.39071L21.6303 2.49627C22.6704 1.45738 23.6215 0.535156 23.7383 0.446267C23.8774 0.346267 24.0275 0.285156 24.1443 0.285156ZM20.4233 5.59071C20.6959 6.88516 20.7904 7.31849 20.8071 7.39627C20.8349 7.52404 20.9017 7.46849 21.7026 6.66849C22.1865 6.19071 22.637 5.7796 22.7149 5.75738C22.7928 5.73516 22.9318 5.73516 23.0208 5.75182C23.1154 5.76849 23.2544 5.85182 23.3323 5.93516C23.4157 6.02404 23.4991 6.15182 23.5214 6.2296C23.5436 6.30738 23.5436 6.45738 23.5214 6.56293C23.488 6.71293 23.2989 6.94627 22.6537 7.60738C22.1976 8.06849 21.8417 8.46293 21.8695 8.47404C21.8917 8.4796 22.3033 8.57405 22.7872 8.6796L23.666 8.86849C26.2023 6.3296 26.942 5.5796 26.942 5.56293C26.942 5.54627 26.4359 5.42405 25.8185 5.29071C25.1956 5.15738 24.6282 5.01849 24.5504 4.9796C24.4725 4.94071 24.3724 4.8296 24.3223 4.72405C24.2723 4.61849 24.1277 4.04071 24.0053 3.43516C23.8774 2.83516 23.755 2.34071 23.7327 2.34071C23.7105 2.34071 22.9541 3.07404 22.053 3.96293L20.4233 5.59071ZM11.7354 4.36849C11.4295 4.42405 10.89 4.54627 10.5396 4.65182C10.1836 4.75182 9.58292 4.96849 9.2047 5.1296C8.82092 5.29627 8.27028 5.57405 7.98105 5.74071C7.68626 5.91293 7.20236 6.24071 6.89645 6.46849C6.59054 6.69627 6.12889 7.0796 5.86747 7.32405C5.61162 7.56293 5.20559 7.99627 4.96086 8.28516C4.72169 8.5796 4.38797 9.01293 4.22667 9.25738C4.06537 9.50738 3.79283 9.96849 3.62041 10.2852C3.45355 10.6074 3.20882 11.1352 3.08645 11.4518C2.95853 11.774 2.79723 12.2629 2.71936 12.5352C2.64705 12.8129 2.54694 13.2352 2.50244 13.4796C2.45794 13.7296 2.39676 14.1685 2.36339 14.4685C2.33002 14.7685 2.30777 15.2685 2.30777 15.5796C2.30777 15.8907 2.3467 16.4852 2.3912 16.8963C2.44126 17.3129 2.56362 17.974 2.66374 18.3685C2.76942 18.7685 2.93628 19.3185 3.04196 19.5907C3.14764 19.8685 3.35343 20.3296 3.50361 20.6185C3.64822 20.9129 3.88183 21.3352 4.02644 21.5629C4.16549 21.7963 4.43247 22.1852 4.62158 22.424C4.80512 22.6685 5.16666 23.0963 5.42251 23.3685C5.68393 23.6407 6.11777 24.0518 6.39587 24.2796C6.66841 24.5074 7.15787 24.8685 7.48047 25.0796C7.7975 25.2963 8.36483 25.6129 8.73193 25.7907C9.09902 25.9685 9.71084 26.2185 10.0946 26.3463C10.4728 26.474 11.0791 26.6407 11.4406 26.7129C11.8022 26.7852 12.4641 26.874 12.9146 26.9074C13.5375 26.9574 13.9213 26.9574 14.5164 26.9074C14.9447 26.8685 15.5955 26.7796 15.9626 26.7074C16.3297 26.6296 16.9026 26.4796 17.2418 26.3685C17.5756 26.2574 18.2041 25.9963 18.6324 25.7907C19.0606 25.5796 19.6335 25.2629 19.9116 25.0796C20.1842 24.9018 20.5958 24.6018 20.8294 24.4129C21.0574 24.2296 21.4857 23.8296 21.786 23.5296C22.0808 23.2296 22.4535 22.8185 22.6092 22.6185C22.765 22.424 23.0264 22.0574 23.1877 21.8129C23.349 21.574 23.6104 21.1352 23.7606 20.8407C23.9163 20.5518 24.1555 20.0296 24.2945 19.674C24.4336 19.324 24.6227 18.724 24.7172 18.3407C24.8118 17.9629 24.923 17.3685 24.9731 17.024C25.0176 16.6796 25.0565 16.024 25.0565 15.5629C25.0565 15.1074 25.0176 14.4463 24.9731 14.0907C24.923 13.7407 24.8007 13.124 24.695 12.7185C24.5949 12.3129 24.428 11.7852 24.3334 11.5352C24.2389 11.2907 24.072 10.9074 23.9664 10.674L23.7717 10.2574L20.6347 9.5796L20.0896 10.0907C20.6569 10.8685 20.9462 11.3296 21.0963 11.6185C21.2521 11.9129 21.4467 12.3352 21.5413 12.5629C21.6303 12.7963 21.7693 13.2463 21.8472 13.5629C21.9251 13.8852 22.0196 14.424 22.053 14.7574C22.0919 15.0963 22.1031 15.6352 22.0864 15.9518C22.0697 16.274 22.0141 16.7518 21.9696 17.0074C21.9251 17.2685 21.825 17.7074 21.7415 17.9796C21.6637 18.2574 21.4579 18.7796 21.2799 19.1463C21.1019 19.5185 20.8294 20.0018 20.6792 20.2296C20.5234 20.4629 20.2231 20.8518 20.0117 21.0907C19.8004 21.3352 19.4389 21.7018 19.2052 21.8963C18.9772 22.0963 18.5879 22.3907 18.3487 22.5574C18.104 22.7185 17.659 22.974 17.3531 23.1185C17.0472 23.2685 16.5967 23.4574 16.3519 23.5407C16.1072 23.6185 15.6789 23.7352 15.4064 23.7963C15.0838 23.8685 14.5776 23.9185 14.0159 23.9352C13.4485 23.9574 12.9424 23.9463 12.6254 23.9018C12.3473 23.8629 11.8967 23.7796 11.6242 23.7074C11.3461 23.6352 10.8844 23.4852 10.5952 23.3685C10.3004 23.2574 9.8499 23.0407 9.59404 22.8963C9.33263 22.7518 8.90991 22.4796 8.65962 22.2907C8.40933 22.1074 7.98105 21.7352 7.71407 21.4629C7.44709 21.1963 7.05775 20.7352 6.85196 20.4518C6.64616 20.1629 6.34025 19.6518 6.17339 19.3129C6.00653 18.9796 5.79517 18.4796 5.70617 18.2018C5.61718 17.9296 5.50038 17.4907 5.45032 17.2296C5.3947 16.974 5.33352 16.4963 5.31127 16.174C5.28902 15.8574 5.28902 15.3074 5.31127 14.9518C5.33908 14.6018 5.40582 14.0907 5.46701 13.8129C5.52819 13.5407 5.63943 13.1185 5.72286 12.8685C5.80629 12.624 5.9954 12.174 6.14558 11.8685C6.29575 11.5629 6.54604 11.124 6.7129 10.8852C6.8742 10.6518 7.16899 10.274 7.36366 10.0518C7.5639 9.8296 7.9143 9.4796 8.14235 9.27404C8.37595 9.06293 8.74861 8.76849 8.98222 8.61849C9.21026 8.46293 9.63298 8.21849 9.92776 8.06849C10.217 7.92405 10.6786 7.72404 10.9567 7.6296C11.2293 7.53516 11.7076 7.40738 12.0135 7.34071C12.3639 7.26849 12.8756 7.21293 13.404 7.19071C14.0325 7.16849 14.3941 7.18516 14.878 7.25738C15.2284 7.31293 15.729 7.41293 15.9904 7.49071C16.2462 7.56849 16.6856 7.72404 16.9637 7.83516C17.2363 7.95182 17.6368 8.14627 17.8537 8.27405C18.065 8.39627 18.4544 8.65182 18.7158 8.84071L19.1886 9.18516L19.7114 8.64627C19.1941 6.25738 19.0495 5.55738 19.0495 5.55182C19.0495 5.54627 18.8048 5.41849 18.5044 5.2796C18.2096 5.13516 17.6646 4.91849 17.2975 4.79627C16.9304 4.66849 16.313 4.50738 15.9348 4.4296C15.551 4.35182 14.9002 4.26293 14.4886 4.23516C14.0715 4.20182 13.6877 4.1796 13.6265 4.18516C13.5653 4.19071 13.2372 4.21293 12.9035 4.23516C12.5642 4.25738 12.0413 4.31849 11.7354 4.36849ZM12.4307 8.62405C12.1971 8.66293 11.7855 8.76293 11.5129 8.85182C11.2348 8.94071 10.7843 9.1296 10.5118 9.26849C10.2337 9.40738 9.81096 9.66293 9.57179 9.83516C9.33262 10.0074 8.92103 10.3629 8.65962 10.624C8.40376 10.8796 8.03667 11.3185 7.85312 11.5963C7.66958 11.8685 7.43597 12.2574 7.33585 12.4574C7.2413 12.6518 7.08 13.0518 6.97988 13.3463C6.88533 13.6352 6.76852 14.0852 6.71847 14.3463C6.67397 14.6074 6.63504 15.1463 6.63504 15.5685C6.63504 16.0129 6.67397 16.5185 6.72403 16.8185C6.77409 17.0907 6.89089 17.5407 6.98544 17.8185C7.07444 18.0907 7.26911 18.5407 7.41372 18.8185C7.55277 19.0907 7.81975 19.5185 7.99774 19.7629C8.18128 20.0018 8.52057 20.3907 8.74861 20.624C8.98222 20.8518 9.42718 21.2074 9.73309 21.4074C10.039 21.6129 10.4728 21.8685 10.7064 21.974C10.9345 22.0796 11.3294 22.2296 11.5797 22.3074C11.83 22.3907 12.2583 22.4907 12.5252 22.5407C12.7922 22.5852 13.315 22.624 13.6821 22.624C14.0492 22.624 14.5721 22.5852 14.8502 22.5352C15.1227 22.4907 15.5621 22.3852 15.8235 22.3074C16.0794 22.2296 16.5577 22.0296 16.8803 21.8629C17.1973 21.7018 17.6757 21.4074 17.9371 21.2129C18.193 21.0185 18.6045 20.6518 18.8437 20.3907C19.0829 20.1352 19.3999 19.7407 19.5557 19.5129C19.7058 19.2796 19.9283 18.8907 20.0507 18.6518C20.1675 18.4074 20.3288 18.0185 20.4011 17.7907C20.479 17.5574 20.5846 17.1574 20.6403 16.9018C20.7126 16.5518 20.7404 16.1907 20.7404 15.5407C20.7348 14.774 20.7126 14.5629 20.5846 14.0129C20.5012 13.6574 20.3288 13.124 20.2009 12.8185C20.0674 12.5129 19.7948 12.0018 19.589 11.6907C19.3832 11.3796 19.1941 11.1074 19.1719 11.0963C19.1496 11.0852 18.6602 11.5407 18.0873 12.1129L17.0472 13.1518C17.4588 13.9685 17.6201 14.3796 17.6701 14.5963C17.7313 14.8296 17.7647 15.2129 17.7647 15.5685C17.7702 15.9796 17.7369 16.2796 17.6534 16.5963C17.5923 16.8352 17.4421 17.224 17.3197 17.4574C17.2029 17.6852 16.986 18.0129 16.8358 18.1852C16.6912 18.3574 16.4075 18.6296 16.2129 18.7907C16.0126 18.9463 15.6734 19.1629 15.462 19.2629C15.2451 19.3629 14.9058 19.4907 14.7111 19.5463C14.4664 19.6074 14.1327 19.6407 13.71 19.6463C13.2705 19.6463 12.9535 19.6185 12.7088 19.5518C12.5086 19.4963 12.1192 19.3463 11.8467 19.2074C11.4907 19.0407 11.2237 18.8518 10.9345 18.5852C10.7064 18.374 10.4172 18.0407 10.2837 17.8463C10.1502 17.6463 9.97782 17.324 9.89995 17.1352C9.82209 16.9463 9.72197 16.6129 9.67747 16.4018C9.62741 16.1852 9.59404 15.824 9.59404 15.5963C9.59404 15.3629 9.63298 14.9852 9.67747 14.7463C9.72753 14.5074 9.83321 14.1685 9.91108 13.9852C9.98895 13.7963 10.1391 13.5129 10.2448 13.3463C10.356 13.174 10.5563 12.9185 10.7009 12.7685C10.8399 12.6185 11.1069 12.3907 11.2905 12.2574C11.474 12.1296 11.7521 11.9574 11.9134 11.8796C12.0747 11.7963 12.3973 11.6796 12.6365 11.6129C12.9591 11.5185 13.2205 11.4907 13.6821 11.4907C14.0659 11.4907 14.4219 11.524 14.6555 11.5852C14.8502 11.6352 15.2562 11.7963 15.551 11.9407L16.0905 12.2074C17.7035 10.6129 18.1596 10.124 18.1429 10.0963C18.1262 10.0629 17.9037 9.89627 17.6479 9.72404C17.392 9.55182 17.0361 9.33516 16.8525 9.24627C16.669 9.15182 16.3297 9.01293 16.1016 8.9296C15.868 8.84627 15.4676 8.7296 15.2117 8.66849C14.8835 8.59627 14.4608 8.55182 13.8768 8.53516C13.3985 8.52404 12.9758 8.52404 12.9313 8.53516C12.8812 8.54627 12.6587 8.58516 12.4307 8.62405ZM12.4585 13.1074C12.2749 13.1963 11.9857 13.4018 11.8189 13.5518C11.6464 13.7074 11.424 13.9796 11.3183 14.1574C11.207 14.3352 11.0791 14.6407 11.029 14.8407C10.9734 15.0407 10.9289 15.3685 10.9289 15.5685C10.9289 15.7629 10.9679 16.0907 11.0235 16.2907C11.0791 16.4852 11.1959 16.774 11.2849 16.9296C11.3739 17.0796 11.563 17.324 11.7021 17.474C11.8411 17.6185 12.0691 17.8129 12.2082 17.9018C12.3417 17.9907 12.6087 18.1129 12.7922 18.174C12.9758 18.2407 13.2984 18.3074 13.5153 18.324C13.7823 18.3463 14.0214 18.324 14.294 18.2629C14.5053 18.2129 14.8168 18.0963 14.9892 18.0074C15.1561 17.9185 15.4119 17.7352 15.5565 17.5963C15.7012 17.4574 15.907 17.2129 16.0182 17.0518C16.1239 16.8907 16.2629 16.5963 16.3241 16.4018C16.402 16.1518 16.4354 15.8852 16.4354 15.5518C16.4354 15.2129 16.3964 14.9629 16.3185 14.7185C16.2518 14.5296 16.1684 14.324 16.1239 14.2629C16.046 14.1518 15.9959 14.1963 15.0282 15.1629C14.1215 16.074 13.9881 16.1852 13.7934 16.2129C13.6376 16.2352 13.5097 16.2185 13.3874 16.1574C13.2872 16.1074 13.1704 15.9907 13.1259 15.9018C13.0759 15.8074 13.0425 15.6574 13.0425 15.5685C13.0425 15.474 13.0648 15.3407 13.1037 15.274C13.1371 15.2074 13.6043 14.7074 14.1438 14.1685C15.1171 13.1963 15.1227 13.1852 14.9892 13.1185C14.9114 13.0796 14.7111 13.0018 14.5443 12.9463C14.3718 12.8907 14.0604 12.8296 13.849 12.8185C13.621 12.8018 13.315 12.824 13.1259 12.8629C12.9424 12.9074 12.642 13.0129 12.4585 13.1074Z" fill="#3E3E3E" stroke="#3E3E3E" stroke-width="0.5"/>
</svg>
