<svg width="31" height="32" viewBox="0 0 31 32" fill="none" xmlns="http://www.w3.org/2000/svg">
<path fill-rule="evenodd" clip-rule="evenodd" d="M3.96875 0.910156C4.13125 0.910156 4.29375 0.953906 4.43125 1.04766C4.55 1.12891 4.70625 1.27266 4.775 1.36641C4.9 1.53516 4.90625 1.62891 4.9375 5.16016L5.33125 4.80391C5.54375 4.61016 5.93125 4.29141 6.1875 4.09766C6.44375 3.90391 6.925 3.56641 7.25 3.34766C7.575 3.13516 8.18125 2.79141 8.59375 2.58516C9.00625 2.37266 9.66875 2.07891 10.0625 1.92891C10.4563 1.77891 11.1438 1.55391 11.5938 1.43516C12.0437 1.31641 12.8938 1.15391 13.4875 1.06641C14.2563 0.953906 14.8312 0.910156 15.5187 0.910156C16.2 0.910156 16.7563 0.953906 17.5 1.06016C18.0688 1.14141 18.825 1.28516 19.1875 1.37891C19.55 1.47266 20.0375 1.61016 20.2812 1.69141C20.525 1.76641 20.9375 1.92266 21.2062 2.02891C21.4688 2.13516 21.9625 2.36016 22.2938 2.52891C22.6313 2.69766 23.1625 2.97891 23.4688 3.16641C23.775 3.34766 24.3687 3.75391 24.7812 4.06016C25.1938 4.37266 25.8687 4.96641 26.2875 5.37891C26.7 5.79141 27.2312 6.36641 27.4625 6.66016C27.6938 6.95391 28.0687 7.47266 28.3 7.81641C28.525 8.16016 28.9 8.80391 29.1375 9.25391C29.3688 9.70391 29.6875 10.4039 29.8438 10.8164C30.0063 11.2289 30.2313 11.9289 30.35 12.3789C30.4688 12.8289 30.6187 13.5727 30.6875 14.0352C30.7563 14.4977 30.8313 15.3602 30.85 15.9414C30.8875 16.8414 30.8687 17.1664 30.7563 18.0664C30.675 18.6539 30.5063 19.5477 30.375 20.0664C30.2437 20.5789 30.0063 21.3414 29.8438 21.7539C29.6875 22.1664 29.3687 22.8727 29.1313 23.3164C28.9 23.7602 28.5438 24.3852 28.3438 24.6914C28.1375 24.9977 27.75 25.5352 27.475 25.8789C27.2063 26.2227 26.6562 26.8289 26.2563 27.2227C25.8563 27.6164 25.2062 28.1852 24.8125 28.4789C24.4188 28.7789 23.8375 29.1727 23.5312 29.3664C23.225 29.5539 22.675 29.8539 22.3125 30.0352C21.95 30.2164 21.35 30.4852 20.9688 30.6352C20.5875 30.7789 19.9 31.0039 19.4375 31.1227C18.975 31.2477 18.1187 31.4164 17.5312 31.5039C16.75 31.6164 16.2125 31.6602 15.5 31.6602C14.7875 31.6602 14.25 31.6164 13.4688 31.5039C12.8875 31.4164 12.0437 31.2539 11.5938 31.1352C11.1438 31.0164 10.4438 30.7914 10.0312 30.6289C9.61875 30.4727 8.91875 30.1539 8.46875 29.9164C8.01875 29.6852 7.40625 29.3289 7.09375 29.1289C6.78125 28.9227 6.25 28.5352 5.90625 28.2602C5.5625 27.9914 4.9875 27.4664 4.625 27.1039C4.2625 26.7414 3.775 26.2039 3.54375 25.9102C3.3125 25.6164 2.93125 25.0977 2.7 24.7539C2.475 24.4102 2.09375 23.7602 1.8625 23.3164C1.63125 22.8727 1.3125 22.1664 1.15625 21.7539C1 21.3414 0.775 20.6352 0.65 20.1914C0.53125 19.7477 0.36875 18.8914 0.28125 18.2977C0.19375 17.7102 0.125 16.9539 0.125 16.6289C0.125 16.0852 0.1375 16.0164 0.3 15.7789C0.39375 15.6414 0.5625 15.4852 0.675 15.4352C0.78125 15.3914 0.99375 15.3477 1.14375 15.3477C1.29375 15.3477 1.49375 15.4039 1.6125 15.4727C1.71875 15.5414 1.86875 15.7102 1.9375 15.8477C2.025 16.0164 2.0625 16.2227 2.0625 16.4914C2.0625 16.7039 2.0875 17.1727 2.125 17.5352C2.1625 17.8977 2.25 18.4977 2.31875 18.8789C2.39375 19.2602 2.5875 19.9727 2.75 20.4727C2.9125 20.9727 3.2125 21.7289 3.425 22.1602C3.63125 22.5914 4.01875 23.2664 4.28125 23.6602C4.55 24.0539 4.9375 24.5914 5.15625 24.8477C5.375 25.1039 5.8375 25.5977 6.19375 25.9414C6.55 26.2914 7.08125 26.7539 7.375 26.9727C7.66875 27.1977 8.1875 27.5477 8.53125 27.7602C8.875 27.9664 9.4375 28.2727 9.78125 28.4352C10.125 28.5977 10.8125 28.8664 11.3125 29.0352C11.8125 29.1977 12.525 29.3914 12.9062 29.4664C13.2875 29.5352 13.8875 29.6227 14.25 29.6602C14.6125 29.6914 15.175 29.7227 15.5 29.7227C15.825 29.7227 16.3875 29.6977 16.75 29.6602C17.1125 29.6227 17.7125 29.5352 18.0938 29.4664C18.475 29.3914 19.1875 29.1977 19.6875 29.0352C20.1875 28.8727 20.9438 28.5727 21.375 28.3602C21.8062 28.1539 22.4813 27.7664 22.875 27.5039C23.2687 27.2352 23.8062 26.8477 24.0625 26.6289C24.3188 26.4164 24.825 25.9289 25.1875 25.5602C25.55 25.1852 26.0125 24.6539 26.2188 24.3789C26.425 24.1039 26.7437 23.6414 26.925 23.3477C27.1125 23.0539 27.4188 22.4914 27.6063 22.0977C27.8 21.7039 28.0875 20.9727 28.25 20.4727C28.4125 19.9727 28.6062 19.2602 28.6812 18.8789C28.75 18.4977 28.8375 17.8977 28.875 17.5352C28.9125 17.1727 28.9375 16.6102 28.9375 16.2852C28.9375 15.9602 28.9125 15.3977 28.875 15.0352C28.8375 14.6727 28.75 14.0727 28.6812 13.6914C28.6062 13.3102 28.4125 12.5977 28.25 12.0977C28.0875 11.5977 27.8 10.8664 27.6063 10.4727C27.4188 10.0789 27.1125 9.51641 26.925 9.22266C26.7437 8.92891 26.425 8.46641 26.2188 8.19141C26.0125 7.91641 25.55 7.38516 25.1875 7.01016C24.825 6.64141 24.3188 6.15391 24.0625 5.94141C23.8062 5.72266 23.2687 5.33516 22.875 5.06641C22.4813 4.80391 21.8188 4.42266 21.4062 4.22266C20.9937 4.01641 20.275 3.72891 19.8125 3.57266C19.35 3.41641 18.6437 3.22266 18.25 3.13516C17.8563 3.05391 17.15 2.95391 16.6875 2.91016C16.175 2.86016 15.5 2.84766 14.9688 2.86641C14.4875 2.89141 13.8125 2.94766 13.4688 3.00391C13.125 3.05391 12.575 3.16641 12.25 3.25391C11.925 3.33516 11.4375 3.47266 11.1687 3.56016C10.9062 3.64766 10.3688 3.86641 9.9875 4.03516C9.6 4.21016 9.04375 4.49766 8.75 4.67266C8.45625 4.84766 7.98125 5.16016 7.6875 5.37266C7.39375 5.57891 6.93125 5.94766 6.1625 6.62891L8.10625 6.66016C9.95625 6.69141 10.0625 6.69766 10.2312 6.82266C10.325 6.89141 10.475 7.04766 10.55 7.16641C10.6687 7.33516 10.6938 7.44141 10.675 7.69141C10.6625 7.87266 10.5938 8.08516 10.525 8.19141C10.45 8.29766 10.2938 8.42891 10.1625 8.48516C9.95625 8.58516 9.65625 8.59766 3.71875 8.60391L3.50625 8.46016C3.3875 8.37891 3.23125 8.23516 3.1625 8.14141C3.03125 7.96641 3.03125 7.89766 3.0125 4.87266C3 1.90391 3.00625 1.77266 3.125 1.50391C3.20625 1.32891 3.3375 1.16641 3.48125 1.07266C3.625 0.978906 3.81875 0.916406 3.96875 0.910156ZM15.5625 8.61641C15.6812 8.63516 17.525 9.29766 19.6562 10.0977C21.7875 10.8914 23.6063 11.5914 23.7 11.6477C23.7938 11.7102 23.9312 11.8539 23.9937 11.9727C24.1187 12.1852 24.1187 12.3227 24.125 16.7414C24.125 20.3539 24.1063 21.3289 24.0438 21.4914C24 21.5977 23.875 21.7539 23.775 21.8227C23.675 21.8977 21.8188 22.6227 19.6562 23.4352C17.2188 24.3477 15.6375 24.9102 15.5 24.9102C15.3687 24.9102 13.6812 24.3102 11.3438 23.4352C9.175 22.6227 7.3125 21.8914 7.2 21.8102C7.075 21.7164 6.975 21.5727 6.9375 21.4289C6.8875 21.2664 6.875 19.6789 6.90625 12.0352L7.125 11.8164C7.31875 11.6289 7.83125 11.4164 11.3438 10.0977C14.4625 8.92266 15.3938 8.59766 15.5625 8.61641ZM10.625 12.4414C10.6062 12.4602 10.6625 12.4977 10.75 12.5227C10.8375 12.5539 11.9438 12.9664 13.2188 13.4414L15.5312 14.2977C19.0688 12.9664 20.1625 12.5539 20.25 12.5227C20.375 12.4727 20.3875 12.4539 20.3125 12.4102C20.2625 12.3852 19.1625 11.9602 17.875 11.4789C16.5875 10.9977 15.5063 10.6039 15.4688 10.6039C15.4312 10.6102 14.3375 11.0164 13.0312 11.5102C11.725 12.0039 10.6438 12.4227 10.625 12.4414ZM8.78125 20.4164C13.1375 22.0539 14.4437 22.5352 14.4812 22.5352C14.5437 22.5352 14.5625 21.8414 14.5625 19.2727V16.0039C10.1313 14.3352 8.825 13.8477 8.79375 13.8477C8.76875 13.8477 8.75625 15.3289 8.7625 17.1352L8.78125 20.4164ZM16.4188 15.9914C16.4375 21.8289 16.4562 22.5289 16.5187 22.5289C16.5625 22.5289 17.8625 22.0539 19.4062 21.4727L22.2188 20.4164C22.2437 15.3227 22.2312 13.8477 22.2062 13.8477C22.1812 13.8477 20.8687 14.3289 19.2875 14.9227L16.4188 15.9914Z" fill="#3E3E3E"/>
</svg>
