<svg width="27" height="30" viewBox="0 0 27 30" fill="none" xmlns="http://www.w3.org/2000/svg">
<path fill-rule="evenodd" clip-rule="evenodd" d="M13.4687 0.910156C13.6062 0.910156 13.8999 0.966406 14.1249 1.04141C14.3499 1.11641 14.5999 1.22266 14.6874 1.27266C14.7749 1.32891 15.0687 1.54766 15.3437 1.75391C15.6187 1.96641 15.9874 2.23516 16.1562 2.34766C16.3312 2.46641 16.7624 2.71016 17.1249 2.89141C17.4874 3.06641 18.0624 3.31641 18.4062 3.44141C18.7499 3.56641 19.3374 3.74766 19.7187 3.85391C20.0999 3.95391 20.8124 4.10391 21.3124 4.18516C21.8124 4.27266 22.6124 4.37266 23.0937 4.41016C23.5749 4.44766 24.2374 4.51016 24.5624 4.54141C24.9749 4.57891 25.2562 4.64766 25.4874 4.75391C25.6624 4.84141 25.9374 5.03516 26.0937 5.19141C26.2499 5.34766 26.4687 5.66016 26.7812 6.31641L26.7999 9.50391C26.8124 12.0977 26.7999 12.8539 26.7187 13.5664C26.6624 14.0477 26.5624 14.7477 26.4937 15.1289C26.4249 15.5102 26.2749 16.1852 26.1562 16.6289C26.0437 17.0727 25.8562 17.6977 25.7499 18.0039C25.6374 18.3102 25.4124 18.8914 25.2437 19.2852C25.0749 19.6789 24.7437 20.3539 24.5124 20.7852C24.2812 21.2164 23.8812 21.8727 23.6249 22.2539C23.3749 22.6352 22.9687 23.1977 22.7187 23.5039C22.4749 23.8102 22.0624 24.2914 21.8062 24.5664C21.5437 24.8414 21.1124 25.2789 20.8374 25.5414C20.5687 25.8039 20.1062 26.2102 19.8124 26.4477C19.5187 26.6852 19.0562 27.0352 18.7812 27.2289C18.5062 27.4227 18.0124 27.7414 17.6874 27.9414C17.3624 28.1414 16.7874 28.4539 16.4062 28.6477C16.0249 28.8352 15.4937 29.0852 15.2187 29.2039C14.9437 29.3227 14.4937 29.4727 14.2187 29.5414C13.9437 29.6039 13.6187 29.6602 13.4999 29.6602C13.3812 29.6602 13.0562 29.6039 12.7812 29.5352C12.5062 29.4664 12.0562 29.3164 11.7812 29.2039C11.5062 29.0852 10.9874 28.8414 10.6249 28.6602C10.2624 28.4789 9.68741 28.1602 9.34366 27.9539C8.99991 27.7477 8.49366 27.4227 8.21866 27.2289C7.94366 27.0352 7.48116 26.6852 7.18741 26.4477C6.89366 26.2102 6.43116 25.8039 6.16241 25.5414C5.88741 25.2789 5.45616 24.8414 5.19366 24.5664C4.93741 24.2914 4.52491 23.8102 4.27491 23.5039C4.03116 23.1977 3.62491 22.6352 3.36866 22.2539C3.11866 21.8727 2.71866 21.2164 2.48741 20.7852C2.25616 20.3539 1.92491 19.6789 1.75616 19.2852C1.58741 18.8914 1.36241 18.3102 1.24991 18.0039C1.14366 17.6977 0.962411 17.0727 0.843661 16.6289C0.724911 16.1852 0.587411 15.6039 0.537411 15.3477C0.487411 15.0914 0.387411 14.4164 0.312411 13.8477C0.193661 12.9039 0.187411 12.5477 0.218661 6.31641L0.393661 5.94141C0.493661 5.73516 0.649911 5.46641 0.743661 5.34766C0.843661 5.22891 1.05616 5.03516 1.22491 4.92891C1.39366 4.81641 1.65616 4.68516 1.81241 4.63516C1.96866 4.58516 2.57491 4.51641 3.15616 4.47891C3.73741 4.43516 4.61241 4.34766 5.09366 4.27891C5.57491 4.21016 6.29366 4.08516 6.68741 3.99766C7.08116 3.91016 7.78741 3.71016 8.24991 3.55391C8.71241 3.40391 9.39991 3.12266 9.78116 2.94141C10.1624 2.75391 10.7437 2.41016 11.0749 2.17891C11.4062 1.94766 11.8249 1.63516 12.0124 1.49141C12.1999 1.34141 12.5312 1.16016 12.7812 1.07266C13.0187 0.985156 13.3312 0.916406 13.4687 0.910156ZM11.8124 4.09766C11.4874 4.29766 10.8937 4.62266 10.4999 4.81016C10.1062 4.99766 9.44366 5.26641 9.03116 5.41016C8.61866 5.54766 8.01241 5.73516 7.68741 5.81641C7.36241 5.89766 6.79991 6.02266 6.43741 6.09141C6.07491 6.16016 5.43116 6.26016 4.99991 6.31016C4.56866 6.36641 3.81241 6.43516 3.31241 6.47266C2.58741 6.52266 2.38116 6.55391 2.29366 6.64141C2.18116 6.74766 2.17491 6.91016 2.20616 10.0352C2.23116 13.0352 2.24366 13.3914 2.36866 14.1914C2.44366 14.6727 2.61866 15.4914 2.74991 16.0039C2.88116 16.5227 3.11866 17.2914 3.28116 17.7227C3.44366 18.1539 3.75616 18.8602 3.97491 19.3039C4.19366 19.7414 4.53741 20.3602 4.73116 20.6727C4.93116 20.9914 5.34366 21.5914 5.64991 22.0039C5.98116 22.4477 6.59991 23.1414 7.14991 23.6914C7.66866 24.2102 8.37491 24.8477 8.71866 25.1039C9.06241 25.3664 9.62491 25.7602 9.96866 25.9852C10.3124 26.2039 10.7749 26.4852 10.9999 26.6102C11.2249 26.7352 11.7562 26.9977 12.1874 27.1977C12.9437 27.5477 12.9812 27.5602 13.4999 27.5602C14.0062 27.5602 14.0624 27.5477 14.7499 27.2289C15.1437 27.0477 15.6812 26.7852 15.9374 26.6477C16.1937 26.5039 16.7999 26.1289 17.2812 25.8102C17.7624 25.4914 18.4374 24.9914 18.7812 24.7039C19.1249 24.4164 19.7124 23.8539 20.0937 23.4664C20.4749 23.0727 21.0374 22.4164 21.3437 22.0039C21.6562 21.5914 22.0687 20.9914 22.2687 20.6727C22.4624 20.3602 22.8062 19.7414 23.0249 19.3039C23.2437 18.8602 23.5499 18.1602 23.7124 17.7352C23.8687 17.3164 24.0999 16.5977 24.2187 16.1477C24.3374 15.6914 24.4874 14.9914 24.5562 14.5977C24.6249 14.2039 24.7062 13.5227 24.7437 13.0789C24.7812 12.6414 24.8124 11.0414 24.8124 9.51641C24.8187 6.94766 24.8062 6.74766 24.7062 6.64141C24.6187 6.55391 24.4124 6.52266 23.6874 6.47266C23.1874 6.43516 22.4312 6.36641 21.9999 6.31016C21.5687 6.26016 20.8124 6.13516 20.3124 6.03516C19.8124 5.93516 19.0687 5.75391 18.6562 5.62891C18.2437 5.50391 17.6499 5.30391 17.3437 5.17891C17.0374 5.05391 16.5124 4.82266 16.1874 4.66016C15.8624 4.49766 15.2999 4.16641 14.9374 3.92266C14.5749 3.67891 14.1374 3.36641 13.9687 3.22891C13.7874 3.07891 13.5874 2.97266 13.4999 2.97266C13.3999 2.97266 13.1687 3.11641 12.8749 3.35391C12.6187 3.56016 12.1374 3.89141 11.8124 4.09766ZM13.4937 6.97266C13.6937 6.97266 13.8499 7.01641 13.9937 7.11016C14.1124 7.19141 14.2687 7.33516 14.3374 7.42891C14.4499 7.57891 14.4687 7.71016 14.4999 8.97266L14.6687 9.01016C14.7687 9.02891 14.9999 9.09141 15.1874 9.14141C15.3749 9.19141 15.7249 9.33516 15.9624 9.46016C16.1999 9.59141 16.5562 9.84766 16.7499 10.0352C16.9437 10.2227 17.1999 10.5227 17.3124 10.6914C17.4312 10.8664 17.5874 11.1602 17.6687 11.3477C17.7437 11.5352 17.8124 11.8164 17.8124 11.9727C17.8124 12.1477 17.7624 12.3289 17.6874 12.4602C17.6187 12.5664 17.4999 12.7039 17.4187 12.7539C17.3437 12.8039 17.1812 12.8727 17.0624 12.9102C16.9124 12.9539 16.7624 12.9477 16.5937 12.9039C16.4562 12.8664 16.2624 12.7602 16.1687 12.6727C16.0687 12.5789 15.9124 12.3352 15.8187 12.1289C15.7187 11.9227 15.5312 11.6477 15.3999 11.5164C15.2687 11.3852 15.0312 11.2164 14.8749 11.1414C14.6187 11.0164 14.4812 11.0039 13.4374 10.9852C12.3124 10.9727 12.2749 10.9727 11.9499 11.1289C11.7374 11.2289 11.5624 11.3789 11.4374 11.5539C11.3312 11.6977 11.2187 11.9477 11.1874 12.1164C11.1499 12.2789 11.1437 12.5039 11.1624 12.6164C11.1874 12.7227 11.2749 12.9539 11.3687 13.1164C11.4562 13.2852 11.6312 13.4852 11.7499 13.5664C11.8687 13.6539 12.8562 14.0164 13.9374 14.3789C15.6374 14.9477 15.9624 15.0789 16.3374 15.3352C16.5749 15.4977 16.8937 15.7852 17.0499 15.9727C17.1999 16.1602 17.3937 16.4414 17.4687 16.5977C17.5499 16.7539 17.6624 17.0477 17.7249 17.2539C17.7937 17.4977 17.8312 17.8227 17.8312 18.1914C17.8249 18.5727 17.7812 18.8852 17.6937 19.1602C17.6249 19.3852 17.4687 19.7352 17.3437 19.9414C17.2249 20.1477 16.9499 20.4789 16.7312 20.6789C16.5187 20.8789 16.1749 21.1289 15.9687 21.2289C15.7624 21.3289 15.4249 21.4477 15.2187 21.5039C15.0124 21.5539 14.7687 21.5977 14.4999 21.5977L14.4812 22.2789C14.4687 22.8602 14.4499 22.9914 14.3374 23.1414C14.2687 23.2352 14.1124 23.3789 13.9937 23.4602C13.8499 23.5539 13.6874 23.6039 13.4999 23.6039C13.3124 23.6039 13.1499 23.5539 13.0062 23.4602C12.8874 23.3789 12.7312 23.2352 12.6624 23.1414C12.5499 22.9914 12.5312 22.8602 12.4999 21.5977L12.3249 21.5602C12.2312 21.5414 11.9749 21.4727 11.7499 21.4102C11.5249 21.3414 11.1624 21.1852 10.9437 21.0539C10.7249 20.9227 10.3999 20.6727 10.2249 20.5039C10.0437 20.3352 9.80616 20.0477 9.68741 19.8789C9.56866 19.7102 9.41241 19.4102 9.33116 19.2227C9.25616 19.0352 9.18741 18.7539 9.18741 18.5977C9.18741 18.4227 9.23741 18.2414 9.31241 18.1102C9.38116 18.0039 9.49991 17.8664 9.57491 17.8164C9.65616 17.7664 9.81866 17.6977 9.93741 17.6602C10.0874 17.6164 10.2374 17.6227 10.4062 17.6664C10.5437 17.7039 10.7374 17.8102 10.8312 17.8977C10.9312 17.9914 11.0874 18.2352 11.1812 18.4414C11.2812 18.6477 11.4687 18.9227 11.5999 19.0539C11.7312 19.1852 11.9687 19.3539 12.1249 19.4289C12.3812 19.5539 12.5187 19.5664 13.5624 19.5852C14.6874 19.5977 14.7249 19.5977 15.0437 19.4414C15.2624 19.3414 15.4374 19.1914 15.5624 19.0164C15.6687 18.8727 15.7812 18.6227 15.8124 18.4602C15.8499 18.2914 15.8562 18.0664 15.8374 17.9539C15.8124 17.8477 15.7249 17.6164 15.6312 17.4539C15.5437 17.2852 15.3687 17.0852 15.2499 16.9977C15.1312 16.9164 14.1999 16.5727 13.1874 16.2352C12.1749 15.8977 11.1624 15.5227 10.9374 15.4039C10.7124 15.2852 10.3624 15.0227 10.1562 14.8102C9.94991 14.6039 9.69366 14.2664 9.58116 14.0602C9.47491 13.8602 9.33741 13.5227 9.27491 13.3164C9.21241 13.0789 9.16866 12.7352 9.17491 12.3789C9.17491 11.9914 9.21866 11.6914 9.30616 11.4102C9.37491 11.1852 9.53116 10.8352 9.65616 10.6289C9.77491 10.4227 10.0499 10.0914 10.2687 9.89141C10.4874 9.67891 10.8437 9.43516 11.0937 9.31016C11.3437 9.19141 11.7374 9.06641 12.4874 8.94141L12.5124 8.27266C12.5249 7.71641 12.5499 7.57891 12.6624 7.42891C12.7312 7.33516 12.8874 7.19141 12.9999 7.11641C13.1416 7.02057 13.3062 6.97266 13.4937 6.97266Z" fill="#3E3E3E"/>
</svg>
