<svg width="20" height="22" viewBox="0 0 20 22" fill="none" xmlns="http://www.w3.org/2000/svg">
<path fill-rule="evenodd" clip-rule="evenodd" d="M13.75 6.49993C13.75 7.49449 13.3549 8.44832 12.6517 9.15158C11.9484 9.85484 10.9946 10.2499 10 10.2499C9.00544 10.2499 8.05161 9.85484 7.34835 9.15158C6.64509 8.44832 6.25 7.49449 6.25 6.49993C6.25 5.50537 6.64509 4.55154 7.34835 3.84828C8.05161 3.14502 9.00544 2.74993 10 2.74993C10.9946 2.74993 11.9484 3.14502 12.6517 3.84828C13.3549 4.55154 13.75 5.50537 13.75 6.49993ZM14.521 10.4449C15.2784 9.57692 15.7698 8.50923 15.9367 7.3694C16.1036 6.22958 15.9388 5.06581 15.4621 4.01711C14.9853 2.96842 14.2167 2.07914 13.2482 1.45551C12.2796 0.83187 11.152 0.500244 10 0.500244C8.84802 0.500244 7.7204 0.83187 6.75183 1.45551C5.78326 2.07914 5.01469 2.96842 4.53794 4.01711C4.06119 5.06581 3.89641 6.22958 4.06329 7.3694C4.23016 8.50923 4.72164 9.57692 5.479 10.4449C4.19571 10.7812 3.06005 11.5334 2.24965 12.5837C1.43924 13.634 0.999782 14.9233 1 16.2499V18.4999C1 19.2956 1.31607 20.0586 1.87868 20.6213C2.44129 21.1839 3.20435 21.4999 4 21.4999H16C16.7956 21.4999 17.5587 21.1839 18.1213 20.6213C18.6839 20.0586 19 19.2956 19 18.4999V16.2499C19.0002 14.9233 18.5608 13.634 17.7504 12.5837C16.9399 11.5334 15.8043 10.7812 14.521 10.4449ZM10 12.4999H7C6.00544 12.4999 5.05161 12.895 4.34835 13.5983C3.64509 14.3015 3.25 15.2554 3.25 16.2499V18.4999C3.25 18.6988 3.32902 18.8896 3.46967 19.0303C3.61032 19.1709 3.80109 19.2499 4 19.2499H16C16.1989 19.2499 16.3897 19.1709 16.5303 19.0303C16.671 18.8896 16.75 18.6988 16.75 18.4999V16.2499C16.75 15.2554 16.3549 14.3015 15.6517 13.5983C14.9484 12.895 13.9946 12.4999 13 12.4999H10Z" fill="#3E3E3E" stroke="white" stroke-width="0.5"/>
</svg>
